<?xml version="1.0" standalone="no"?>
<!DOCTYPE svg PUBLIC "-//W3C//DTD SVG 1.1//EN" "http://www.w3.org/Graphics/SVG/1.1/DTD/svg11.dtd" >
<svg xmlns="http://www.w3.org/2000/svg" xmlns:xlink="http://www.w3.org/1999/xlink" version="1.1">
<metadata></metadata>
<defs>
<font id="vampiro_oneregular" horiz-adv-x="0" >
<font-face units-per-em="2048" ascent="1638" descent="-410" />
<missing-glyph horiz-adv-x="741" />
<glyph />
<glyph />
<glyph unicode="&#xd;" />
<glyph />
<glyph />
<glyph />
<glyph />
<glyph />
<glyph />
<glyph />
<glyph />
<glyph unicode="&#x9;" />
<glyph unicode="&#xa;" />
<glyph />
<glyph />
<glyph />
<glyph />
<glyph />
<glyph />
<glyph />
<glyph />
<glyph />
<glyph />
<glyph />
<glyph />
<glyph unicode=" "  horiz-adv-x="741" />
<glyph unicode="&#x09;" horiz-adv-x="741" />
<glyph unicode="&#xa0;" horiz-adv-x="741" />
<glyph unicode="!" horiz-adv-x="987" d="M0 19q0 81 55.5 136.5t134.5 55.5q80 0 135.5 -55.5t55.5 -135.5q0 -123 -117 -176q-115 -49 -209 41q-55 53 -55 134zM203 504q123 281 213 434q141 244 350 532l229 -202q-209 -289 -297 -439q-145 -248 -266 -536z" />
<glyph unicode="&#x22;" horiz-adv-x="1030" d="M135 952q199 326 309 535l234 -131q-125 -221 -202 -336t-124 -186zM633 952q199 326 309 535l234 -131q-125 -221 -202 -336t-124 -186z" />
<glyph unicode="#" horiz-adv-x="1409" d="M76 580l84 198l162 -53l77 172q-39 14 -77.5 26.5t-77.5 24.5l82 203q113 -37 170 -59l112 221l201 -94q-72 -133 -107 -203l160 -64l109 207l198 -90l-106 -205l162 -76l-92 -196l-164 78q-20 -43 -39 -86t-37 -86l166 -80l-92 -199l-156 76q-74 -193 -92 -250l-211 88 l96 250q-59 25 -155 63l-93 -253l-211 92l93 239zM530 649l158 -63l78 170l-160 65q-20 -43 -38.5 -86t-37.5 -86z" />
<glyph unicode="$" horiz-adv-x="1353" d="M-31 264l127 250q274 -174 531 -242q-47 88 -99.5 162t-97.5 148q-113 180 -141 325q203 221 399 357q70 47 143 94l111 -70l166 232l160 -119l-152 -219l119 -72q-25 -147 -127 -373l-250 121q29 66 44.5 132.5t29.5 131.5q-123 -82 -215 -178q-35 -35 -80 -84 q23 -102 129 -268q45 -72 98.5 -153t104.5 -181l-164 -291q-225 18 -432 92q-74 -92 -180 -231l-160 125q84 104 145 192q-123 63 -209 119z" />
<glyph unicode="%" horiz-adv-x="1613" d="M82 174q344 336 565 521.5t385 306t363 255.5l110 -139q-391 -264 -607 -442t-366.5 -318.5t-320.5 -312.5zM207 1096q0 113 77.5 190.5t192.5 77.5q111 0 188.5 -78t77.5 -190q0 -115 -77 -191q-82 -78 -190.5 -78t-188.5 77t-80 192zM348 1096q0 -54 37 -90.5t89 -36.5 t89 36.5t37 90.5q0 53 -37 90t-89 37t-89 -37t-37 -90zM779 146.5q-42 101.5 1 204t146.5 146.5t206 0t144.5 -146.5t0 -203t-144.5 -146.5t-207 -1t-146.5 146.5zM901 248q0 -53 37 -90t89 -37t89 37t37 90t-37 90t-89 37t-89 -37t-37 -90z" />
<glyph unicode="&#x26;" horiz-adv-x="1548" d="M-158 340q154 150 256 217q168 113 351 199q-16 268 61 534l346 101q188 -92 352 -217l103 -254q-139 -121 -230 -172q-158 -86 -313 -134q18 -100 63 -215q174 68 306 150l123 -199q-142 -96 -322 -176q76 -129 152 -223l-263 -152q-96 129 -172 269q-264 -84 -555 -109 zM174 258q174 10 369 53q-33 86 -56 181q-127 -74 -199.5 -136.5t-113.5 -97.5zM737 856q162 57 277 139q-141 93 -254 150q-27 -135 -23 -289z" />
<glyph unicode="'" horiz-adv-x="532" d="M135 952q199 326 309 535l234 -131q-125 -221 -202 -336t-124 -186z" />
<glyph unicode="(" horiz-adv-x="882" d="M150 -205q-31 625 165 1028q219 446 756 725l150 -149q-252 -139 -418 -309q-322 -330 -400 -857q-37 -262 -32 -587z" />
<glyph unicode=")" horiz-adv-x="882" d="M-439 -297q252 139 418 309q322 330 400 857q37 262 32 587l221 -149q31 -625 -165 -1028q-219 -446 -756 -725z" />
<glyph unicode="*" horiz-adv-x="1179" d="M227 907q143 113 240 174q-102 102 -213 189l125 157q166 -113 246 -178q76 141 116 271l189 -74q-47 -170 -94 -289q168 -25 278 -24l-10 -201q-193 -10 -289 -4q23 -147 62 -275l-193 -55q-53 137 -96 289q-139 -74 -248 -152z" />
<glyph unicode="+" horiz-adv-x="1247" d="M119 635l92 233q98 -27 266 -80q72 186 113 273l227 -92q-47 -106 -106 -260q225 -88 274 -111l-92 -227q-111 47 -268 106q-63 -188 -86 -272l-236 82q33 109 88 270q-133 43 -272 78z" />
<glyph unicode="," horiz-adv-x="751" d="M-180 -338q205 330 297 549l266 -158q-150 -266 -346 -510z" />
<glyph unicode="-" horiz-adv-x="1210" d="M76 635l94 233q393 -102 774 -270l-94 -227q-395 170 -774 264z" />
<glyph unicode="." horiz-adv-x="749" d="M0 19q0 81 55.5 136.5t134.5 55.5q80 0 135.5 -55.5t55.5 -135.5q0 -123 -117 -176q-115 -49 -209 41q-55 53 -55 134z" />
<glyph unicode="/" horiz-adv-x="1153" d="M-39 137q502 539 940 940q156 145 328 297l121 -139q-391 -344 -586 -539q-342 -338 -666 -706z" />
<glyph unicode="0" horiz-adv-x="1359" d="M240 125q-145 541 149 907q199 246 553 348l350 -202q111 -553 -147 -883q-178 -231 -555 -369zM485 303q5 -45 15 -92q250 86 391 252q174 207 135 532q-6 51 -16 109q-246 -78 -385 -260q-160 -207 -140 -541z" />
<glyph unicode="1" horiz-adv-x="974" d="M45 139q227 432 555 883q-143 -57 -311 -145l-105 253q205 119 551 236l240 -252q-420 -598 -707 -1173z" />
<glyph unicode="2" horiz-adv-x="1243" d="M-92 463q127 121 352 213l375 145q199 84 291 193q-94 49 -162 65q-205 47 -442 13l120 247q53 20 141.5 20.5t155 -10t129.5 -26.5q135 -37 224 -96l114 -318q-117 -188 -305 -286q-84 -45 -172 -75t-178 -59q-219 -69 -348 -159q229 -80 665 -127l-118 -258 q-373 45 -514.5 84t-215.5 67z" />
<glyph unicode="3" horiz-adv-x="1226" d="M-117 303q209 -57 343 -57t237.5 28.5t187.5 100.5q-137 92 -377 190q-68 27 -124 43l116 236q389 0 654 155q-221 119 -514 105l-78 -4l125 252q221 27 395 -29q119 -39 229 -100l119 -338q-229 -152 -426 -205q-68 -18 -137 -31q133 -63 229 -131l94 -258 q-270 -295 -677 -295q-176 0 -361 60z" />
<glyph unicode="4" horiz-adv-x="1359" d="M55 823q219 283 604 570l199 -160q-147 -123 -271 -232.5t-243 -238.5q209 -61 318 -98q205 342 464 669l195 -159q-207 -274 -393 -605q178 -66 256 -98l-109 -242q-94 37 -276 101q-121 -242 -183 -389l-223 196q68 158 129 279q-154 43 -424 110z" />
<glyph unicode="5" horiz-adv-x="1234" d="M-125 303q307 -109 580 -12q123 45 215 153q-250 100 -518 172l-15 250l289 416q139 59 297 84q197 -51 316.5 -100t203.5 -84l-110 -277q-311 133 -535 187l-197 -283q242 -70 488 -178l98 -271q-133 -199 -320.5 -293t-385 -94t-375.5 56z" />
<glyph unicode="6" horiz-adv-x="1249" d="M-10 209q12 231 60 419.5t151 336.5q211 299 678 444l233 -195q-256 -70 -411.5 -167t-243.5 -226q160 63 321 47q20 -2 47 -4l246 -207q-49 -295 -248 -485q-197 -188 -504 -229zM285 205q166 16 293 123q135 117 186 307q-18 2 -35 2h-37q-172 0 -350 -59 q-45 -156 -57 -373z" />
<glyph unicode="7" horiz-adv-x="1134" d="M-18 178q264 360 589 639q111 94 238 197q-309 57 -635 69l131 279q344 -12 578 -64q92 -18 188 -43l121 -254q-442 -352 -756 -753q-109 -139 -227 -307z" />
<glyph unicode="8" horiz-adv-x="1269" d="M-55 420q0 90 34.5 156.5t94.5 111.5q104 82 297 105q-57 133 -57.5 220t32.5 154.5t92 114.5q117 90 318 107l358 -203q35 -66 62.5 -134.5t27.5 -140.5q0 -195 -231 -268q-68 -20 -139 -29q117 -160 116 -311q0 -166 -157 -283q-150 -109 -363 -116l-377 211 q-41 66 -74.5 140.5t-33.5 164.5zM221 399.5q0 -100.5 109 -241.5q115 4 184.5 41t100 74.5t30.5 93.5q0 55 -42 113.5t-103 121.5q-127 -12 -203 -57t-76 -145.5zM606 987q0 -66 80 -188q250 34 250 190q0 84 -72 189q-123 -4 -190.5 -54.5t-67.5 -136.5z" />
<glyph unicode="9" horiz-adv-x="1245" d="M23 119q449 121 626 373q-158 -68 -364 -46l-246 209q49 299 248 488q197 186 508 227l325 -250q0 -668 -452 -1001q-164 -121 -408 -197zM346 692q18 -2 35 -2h37q197 0 350 51q41 143 59 383q-250 -27 -405 -260q-49 -76 -76 -172z" />
<glyph unicode=":" horiz-adv-x="890" d="M0 19q0 81 55.5 136.5t134.5 55.5q80 0 135.5 -55.5t55.5 -135.5q0 -123 -117 -176q-115 -49 -209 41q-55 53 -55 134zM332 767q0 81 55.5 136.5t134.5 55.5q80 0 135.5 -55.5t55.5 -135.5q0 -123 -117 -176q-115 -49 -209 41q-55 53 -55 134z" />
<glyph unicode=";" horiz-adv-x="917" d="M-157 -338q205 330 297 549l266 -158q-150 -266 -346 -510zM358 767q0 81 55.5 136.5t134.5 55.5q80 0 135.5 -55.5t55.5 -135.5q0 -123 -117 -176q-115 -49 -209 41q-55 53 -55 134z" />
<glyph unicode="&#x3c;" horiz-adv-x="1247" d="M227 602l86 195q195 96 584 190l82 -207q-317 -94 -465 -170q27 -53 59.5 -108.5t65.5 -110.5q78 -131 125 -198l-197 -111q-203 258 -340 520z" />
<glyph unicode="=" horiz-adv-x="1247" d="M33 379l94 233q393 -102 774 -270l-94 -227q-395 170 -774 264zM197 819l94 233q393 -102 774 -270l-94 -227q-395 170 -774 264z" />
<glyph unicode="&#x3e;" horiz-adv-x="1247" d="M74 369q317 94 465 170q-27 53 -59.5 108.5t-65.5 110.5q-78 131 -125 198l197 111q203 -258 340 -520l-86 -195q-195 -96 -584 -190z" />
<glyph unicode="?" horiz-adv-x="1208" d="M18.5 19q-0.5 81 55 136.5t135.5 55.5t135 -55.5t55 -135.5q0 -123 -116 -176q-115 -49 -209 41q-55 53 -55.5 134zM238 1317q438 199 780 119l184 -285q-25 -233 -178 -389q-68 -68 -146.5 -121t-154.5 -105.5t-140.5 -114t-101.5 -145.5l-241 179q59 137 223 258 q70 49 141.5 94t132.5 94q137 115 162 268q-221 31 -580 -110z" />
<glyph unicode="@" horiz-adv-x="2330" d="M102 270q0 164 46.5 318.5t128 285t192.5 234.5t240 176q272 150 561 150q166 0 308 -59.5t246.5 -164t166.5 -247.5q113 -268 14 -594q-225 -143 -580 -287q-96 -37 -163 -59l-136 151q-141 -102 -319 -158l-217 201q0 297 168 512q180 238 485 264l115 -176 q16 23 90 113l172 -137q-111 -143 -231 -365q-37 -68 -64 -129q127 31 269.5 83t174.5 71q37 111 37 229.5t-44 212.5t-120 162q-160 150 -382 149q-160 0 -322 -68.5t-291 -190.5t-210 -288.5t-81 -363.5q0 -238 150 -387q154 -154 397.5 -154t467.5 91.5t466 271.5 l107 -174q-512 -414 -1053 -414q-176 0 -321.5 57.5t-249 155.5t-161 231t-57.5 297zM848 268q268 74 352 305q27 76 43 172q-193 -39 -297 -172q-94 -125 -98 -305z" />
<glyph unicode="A" horiz-adv-x="1404" d="M-168 147q133 250 350 523l-123 69l177 222l133 -74q250 266 483 442l152 -137q31 127 49 250l256 -221q-121 -614 -490 -1317l-233 213q66 119 94 174q-112 124 -266 233q-227 -291 -359 -583zM592 733q111 -84 203 -182q125 311 184 547q-180 -142 -387 -365z" />
<glyph unicode="B" horiz-adv-x="1394" d="M-145 141q262 580 620 1014q-158 23 -250 23l88 243q246 -10 473.5 -48t444.5 -132l155 -346q-218 -230 -544 -326q96 -63 194 -145l-41 -258q-279 -178 -688 -221q-117 -12 -221 -13zM213 211q328 12 543 129q-72 82 -256 168q-51 23 -99 43q-108 -176 -188 -340z M504 711q205 49 307 98q164 76 272 172q-215 109 -553 164l183 -148q-152 -196 -209 -286z" />
<glyph unicode="C" horiz-adv-x="1245" d="M-106 176q92 401 327 727q268 367 651 529l390 -281q-53 -174 -193 -403q-39 -63 -74 -113l-237 131q139 240 186 403q-256 -127 -452 -389q-189 -256 -232 -526q324 23 590 154l80 -234q-336 -207 -776 -240z" />
<glyph unicode="D" horiz-adv-x="1417" d="M-117 188q129 291 228 459q164 276 354 508q-158 23 -256 23l88 243q246 -10 473 -48t444 -132l121 -274q-98 -416 -436 -688q-311 -250 -754 -332zM244 252q279 80 493 274q227 205 299 478q-219 92 -512 141l181 -148q-287 -362 -461 -745z" />
<glyph unicode="E" horiz-adv-x="1243" d="M-111 229q143 330 426 736q80 117 156 209q-137 22 -227 22h-8l96 254q575 -18 1022 -209l-117 -299q-309 147 -702 221l176 -145q-98 -119 -179 -242q203 -45 404 -63l-92 -260q-313 55 -459 94q-77 -130 -147 -275q279 -61 624 -73l-84 -265q-309 6 -655 82z" />
<glyph unicode="F" horiz-adv-x="1196" d="M-158 156q162 356 459 784q88 127 164 219q-143 23 -236 23l95 254q547 -18 993 -197l-117 -297q-297 131 -672 207l177 -145q-96 -125 -207 -285q125 -25 405 -113l-100 -250l-250 82q-94 29 -199 56q-176 -297 -278 -553z" />
<glyph unicode="G" horiz-adv-x="1366" d="M-96 199q88 377 366 710q291 348 686 514l373 -272q-43 -150 -145 -324l-252 140q35 70 69 184q-426 -219 -628 -600q-68 -127 -101 -264q250 37 426 90q45 90 103 221l274 -141q-217 -426 -540 -840l-220 199q150 190 205 272q-199 -66 -401 -90z" />
<glyph unicode="H" horiz-adv-x="1495" d="M-102 160q102 227 264 508l-162 77l139 240l164 -78q188 307 338 498l221 -199q-84 -111 -295 -432q131 -74 267 -158q299 514 487 752l221 -199q-242 -326 -465 -718l174 -129l-159 -234l-146 111q-88 -174 -141 -318l-238 219q49 111 131 269q-152 98 -276 166 q-174 -332 -285 -594z" />
<glyph unicode="I" horiz-adv-x="737" d="M-129 158q301 678 733 1253l209 -213q-209 -289 -342 -528q-236 -426 -365 -729z" />
<glyph unicode="J" horiz-adv-x="1011" d="M-160 449l271 53q25 -156 69 -314q225 506 496 934q96 154 198 289l213 -213q-246 -340 -526 -899q-84 -166 -145 -303l-463 -55q-88 266 -113 508z" />
<glyph unicode="K" horiz-adv-x="1380" d="M-158 150q313 596 588 991q94 135 197 270l211 -217q-193 -240 -359 -510q473 289 801 596l190 -221q-190 -182 -327 -279q-198 -139 -434 -266q106 -186 311 -457l-275 -176q-195 281 -364 643q-127 -213 -313 -583z" />
<glyph unicode="L" horiz-adv-x="1044" d="M-127 231q250 520 735 1180l211 -213q-268 -368 -563 -911q213 -45 545 -78l-88 -285q-281 25 -403 47.5t-191 36.5z" />
<glyph unicode="M" horiz-adv-x="1824" d="M-160 176q190 385 320 596q225 365 473 688l301 -264q-121 -389 -180 -752q326 395 706 945l293 -252q-123 -397 -181.5 -550t-98.5 -255q-74 -184 -199 -467l-244 198q170 344 239.5 520.5t100.5 260.5q-352 -463 -729 -914l-217 189q92 555 180 870 q-221 -352 -395 -706q-70 -139 -150 -312z" />
<glyph unicode="N" horiz-adv-x="1488" d="M-143 158q117 281 338 665q199 348 405 619l203 -199q4 -342 37 -719q219 461 493 838l209 -193q-336 -469 -641 -1189l-272 -56q-66 483 -86 922q-274 -461 -449 -905z" />
<glyph unicode="O" horiz-adv-x="1404" d="M-37 172q59 631 518 1016q160 135 375 235q272 -139 479 -356l-92 -276q-217 195 -405 309q-209 -109 -371 -369q-168 -268 -188 -545q322 88 548 437q76 119 134 270l282 -102q-137 -385 -358 -596q-240 -229 -619 -301z" />
<glyph unicode="P" horiz-adv-x="1380" d="M-135 154q137 303 246 481q176 293 366 518q-141 25 -254 25l88 243q385 -12 670 -100q106 -33 215 -80l160 -358q-141 -201 -361.5 -347.5t-476.5 -216.5l-135 193q-160 -268 -285 -573zM414 563q432 150 649 412q-195 102 -522 168l176 -146q-164 -207 -303 -434z" />
<glyph unicode="Q" horiz-adv-x="1363" d="M-41 -8l107 201q72 14 151 40l-203 140q29 369 265 659q233 291 593 395l132 -206q12 66 22 180l270 -207q-53 -444 -266 -744.5t-616 -429.5q174 -84 428 -180l-131 -256q-332 125 -574 283q-84 55 -178 125zM268 252q600 227 729 934q-305 -102 -492.5 -344 t-236.5 -590z" />
<glyph unicode="R" horiz-adv-x="1388" d="M-135 154q137 303 246 481q176 293 366 518q-141 25 -256 25l88 243q385 -12 670 -100q106 -33 215 -80l160 -352q-209 -277 -662 -453q123 -197 295 -379l-272 -176q-188 244 -363 582q-141 -244 -256 -522zM434 600q279 106 496 268q74 53 127 109q-195 102 -516 164 l176 -144q-164 -209 -283 -397z" />
<glyph unicode="S" horiz-adv-x="1253" d="M-139 291l137 250q311 -215 569 -316q-49 121 -147 292t-142.5 258t-68.5 173q127 158 323 312q180 141 345 219l395 -265q-39 -174 -178 -432q-35 -66 -62 -104l-246 141q82 131 172 383q-219 -117 -397 -311q23 -72 66 -153t90 -173q125 -233 178 -399l-172 -275 q-383 100 -680 281q-92 57 -182 119z" />
<glyph unicode="T" horiz-adv-x="1179" d="M23 160q124 311 272.5 547.5t282.5 420.5q-246 78 -433 125l152 236q451 -86 1036 -313l-141 -283q-319 133 -553 215l174 -156q-236 -319 -420 -719q-63 -133 -131 -292z" />
<glyph unicode="U" horiz-adv-x="1392" d="M-102 197q254 670 682 1226l221 -219q-221 -268 -432 -680q-61 -123 -111 -237q246 55 414 123v-4q326 672 551 946l225 -219q-319 -385 -657 -1235l-232 219q-150 -78 -403 -168z" />
<glyph unicode="V" horiz-adv-x="1341" d="M78 395q125 401 336 719q-70 -33 -232 -121l-100 236q205 117 303 155.5t172 63.5l227 -242q-311 -485 -430 -938q465 406 834 1084l221 -219q-299 -561 -750 -981q-141 -133 -282 -230l-215 199q80 53 125 92z" />
<glyph unicode="W" horiz-adv-x="1994" d="M74 217q96 479 340 875q-100 -47 -226 -117l-100 235q209 119 308.5 161t172.5 67l230 -230q-293 -457 -416 -919q430 360 813 1063l213 -197l-37 -68q-150 -276 -211 -432q-82 -214 -137 -419q440 360 739 1030l224 -205q-154 -354 -412 -662q-258 -307 -559 -495 l-271 239q18 68 58 197q-160 -184 -311 -309q-53 -45 -111 -90z" />
<glyph unicode="X" horiz-adv-x="1236" d="M-184 229q309 332 594 523q-18 168 -19 342q-98 -43 -178 -86l-98 225q184 115 395 188l178 -196q-13 -106 -13 -231q0 -31 1 -64q236 207 508 381l184 -246q-340 -189 -651 -447q66 -285 201 -620l-289 -76q-109 289 -164 537q-123 -94 -231.5 -207t-227.5 -246z" />
<glyph unicode="Y" horiz-adv-x="1159" d="M27 135q86 215 123.5 283.5t78.5 134.5q-13 113 -13 236q0 322 89 708l275 -252q-70 -272 -78 -522q324 283 569 635l229 -219q-381 -483 -798 -738q-113 -174 -221 -485z" />
<glyph unicode="Z" horiz-adv-x="1292" d="M-133 162l80 233q252 104 547 293q250 158 454 334q-193 74 -407 125q29 -164 39 -215l-271 -33q-49 172 -65 352l264 185q221 -49 362 -103q207 -76 445 -188l-84 -250q-354 -345 -889 -621q213 -61 539 -112l-105 -268q-569 94 -909 268z" />
<glyph unicode="[" horiz-adv-x="1050" d="M-16 -72q219 494 370 768q248 446 539 883q240 -80 304.5 -107.5t125.5 -54.5l-66 -174q-82 33 -241 82q-256 -412 -373 -620q-248 -441 -391 -758q201 -76 336 -113l-58 -182q-199 29 -364 98z" />
<glyph unicode="\" horiz-adv-x="962" d="M94 1374l170 90q287 -680 449 -1179q41 -127 88 -277l-168 -98q-233 745 -428 1210q-49 117 -111 254z" />
<glyph unicode="]" horiz-adv-x="1050" d="M-362 -334l66 174q82 -33 241 -82q256 412 373 620q248 441 391 758q-201 76 -336 113l58 182q199 -29 364 -98l182 -178q-219 -494 -370 -768q-248 -446 -539 -883q-240 80 -304.5 107.5t-125.5 54.5z" />
<glyph unicode="^" horiz-adv-x="1339" d="M88 618q213 219 465 402q80 57 158 104l200 -92q82 -451 99 -796l-234 -50q-31 264 -92 598q-233 -158 -475 -364z" />
<glyph unicode="_" horiz-adv-x="1390" d="M-186 -217h1468v-193h-1468v193z" />
<glyph unicode="`" horiz-adv-x="727" d="M180 1632l232 127q135 -246 252 -557l-201 -88q-119 276 -283 518z" />
<glyph unicode="a" horiz-adv-x="1261" d="M-70 180q0 162 49.5 317.5t145.5 280.5t238.5 208t328.5 99l135 -206q25 39 105 135l201 -172q-203 -264 -336 -566l-6 -4q119 31 278.5 106t202.5 97l45 -207q-121 -88 -402 -227q-111 -55 -200 -88l-158 176q-162 -127 -373 -184zM217 240q219 59 399 290 q53 117 80 291q-211 -20 -346 -186q-133 -164 -133 -395z" />
<glyph unicode="b" horiz-adv-x="1245" d="M-176 121q102 322 442 936q141 254 244 405l213 -157q-90 -131 -293 -469q121 111 272 196l320 -250q-35 -244 -172 -465q131 35 405 158l43 -207q-256 -129 -399 -178q-207 -68 -584 -145l-213 170l-53 -170zM238 221q106 0 167.5 18.5t91 39t70.5 76t76 124.5 q78 160 92 301q-127 -45 -245.5 -117.5t-194.5 -154.5q-51 -135 -57 -287z" />
<glyph unicode="c" horiz-adv-x="1087" d="M-66 180q0 145 19 226q80 338 391 544q139 92 283 137l327 -243q-10 -47 -57 -150q-78 -172 -123 -235l-258 164q111 139 139 233q-197 -84 -319 -270q-111 -168 -111 -375q502 66 873 264l45 -207q-315 -199 -701 -288q-129 -29 -254 -35z" />
<glyph unicode="d" horiz-adv-x="1251" d="M-70 180q0 162 49.5 317.5t145.5 280.5t238.5 208t328.5 99l113 -172q160 309 336 549l198 -172q-203 -258 -419 -733q-66 -143 -117 -281q219 66 459 199l45 -207q-139 -104 -451 -256q-88 -41 -141 -59l-158 176q-162 -127 -373 -184zM217 240q219 59 399 290 q53 117 80 291q-211 -20 -346 -186q-133 -164 -133 -395z" />
<glyph unicode="e" horiz-adv-x="1101" d="M-72 180q0 283 154 516q111 162 251 256.5t269 134.5l346 -286q-51 -213 -194 -309.5t-342 -96.5q-96 0 -152 15q-33 -80 -41 -199q352 20 680 158q111 45 213 106l43 -207q-190 -121 -450 -213q-276 -98 -523 -110zM346 594q119 0 207 65q102 78 102 218 q-207 -113 -309 -283z" />
<glyph unicode="f" horiz-adv-x="1132" d="M-236 -406q98 322 279 707q-102 102 -197 213l129 158l86 -86q37 -37 72 -68q98 344 297 633q178 260 393 410l346 -248q-53 -293 -193 -541t-355 -422q266 45 522 125l43 -207q-365 -117 -805 -205l-125 80q-150 -365 -246 -725zM328 369q209 176 381 456 q166 274 200 480q-431 -432 -581 -936z" />
<glyph unicode="g" horiz-adv-x="1269" d="M-256 -147q127 115 295 198l-115 109q0 162 52.5 315.5t152.5 275t245.5 201.5t332.5 97l114 -193q63 92 119 158l199 -172q-119 -158 -254 -400q-41 -74 -72 -143q313 90 467 176l43 -207q-168 -125 -365 -223q-72 -37 -124 -55l-89 98q-80 -356 -229 -555 q-51 -70 -113 -135q-231 6 -493 72q-84 20 -156 45zM-49 -297q201 -47 311 -47q127 109 209 354q-321 -129 -520 -307zM211 211q121 35 184 72q119 74 205 186q61 135 90 313q-209 -20 -346 -180q-133 -158 -133 -391z" />
<glyph unicode="h" horiz-adv-x="1288" d="M-166 102q68 231 297 693q209 422 375 667l209 -157q-172 -279 -330 -590q190 145 438 276l248 -194q-68 -291 -237 -525q205 70 464 203l43 -207q-84 -55 -256 -141q-295 -145 -407 -182l-254 180q123 147 206 291.5t107 253.5q-268 -133 -353 -188.5t-153 -102.5 q-100 -248 -153 -434z" />
<glyph unicode="i" horiz-adv-x="679" d="M-166 162q100 274 361 684q78 123 151 215l203 -150q-150 -205 -291 -493q-41 -86 -70 -160q209 63 502 217l43 -207q-199 -129 -479 -252q-94 -41 -184 -71zM451 1278q0 70 48 118t117 48q70 0 118 -48t48 -118t-48 -118t-118 -48q-69 0 -118 47q-47 49 -47 119z" />
<glyph unicode="j" horiz-adv-x="679" d="M-418 -453q252 780 651 1360q59 86 113 154l203 -150q-246 -338 -379 -657q152 45 277.5 103.5t242.5 117.5l43 -207q-184 -121 -446 -235q-90 -39 -181 -70l-55 53q-115 -248 -231 -618zM451 1278q0 70 48 118t117 48q70 0 118 -48t48 -118t-48 -118t-118 -48 q-69 0 -118 47q-47 49 -47 119z" />
<glyph unicode="k" horiz-adv-x="1130" d="M-176 102q178 479 489 1028q98 172 201 332l211 -157q-207 -305 -387 -689q274 256 569 467l209 -194q-377 -240 -581 -387q35 -98 104 -240q260 88 502 213l45 -207q-279 -186 -572 -323l-256 180q-63 180 -84 348q-104 -238 -206 -528z" />
<glyph unicode="l" horiz-adv-x="1007" d="M-129 180q88 317 313 719q150 266 336 473q94 104 195 176l346 -243q-70 -559 -508 -789q-141 -74 -315 -117q-49 -121 -76 -206q254 35 395 77q276 82 461 205l43 -207q-301 -209 -684 -291q-127 -27 -252 -32zM356 655q186 88 297 254t148 389q-162 -145 -346 -462 q-54 -91 -99 -181z" />
<glyph unicode="m" horiz-adv-x="1878" d="M-166 102q70 236 217 531q133 264 279 446l207 -149q-74 -100 -131 -207q186 154 399 268l248 -194l-27 -103q166 133 369 242l247 -195q-66 -272 -217 -469q199 68 463 203l43 -207q-84 -55 -256 -141q-295 -145 -407 -182l-254 180q254 305 299 496 q-215 -104 -406 -242q-100 -225 -248 -434l-235 161q98 131 166 254q109 201 133 316q-197 -92 -363 -209q-57 -39 -120 -84q-92 -217 -162 -438z" />
<glyph unicode="n" horiz-adv-x="1288" d="M-166 102q70 236 217 531q133 264 279 446l207 -149q-72 -96 -138 -217q205 162 424 278l248 -194q-68 -291 -237 -525q205 70 464 203l43 -207q-84 -55 -256 -141q-295 -145 -407 -182l-254 180q123 147 206 291.5t107 253.5q-262 -123 -499 -287q-94 -225 -160 -438z " />
<glyph unicode="o" horiz-adv-x="1200" d="M-70 188q0 197 78 390q98 242 324 391q156 104 338 129l325 -279q-35 -221 -118 -385q147 8 333 41l45 -207q-266 -111 -417 -149l-99 112q-197 -227 -518 -286zM205 223q233 53 389 289q66 100 94.5 192.5t30.5 147.5q-166 -23 -316 -176q-186 -191 -198 -453z" />
<glyph unicode="p" horiz-adv-x="1249" d="M-397 -424q252 758 706 1524l207 -152l-108 -203q135 121 358 246l248 -194q-16 -164 -53 -283t-121 -205q221 72 420 166l43 -207q-260 -145 -725 -260q-143 -37 -289 -63l-191 174q-176 -397 -262 -701zM123 174q221 35 323 76q147 70 234 295q29 70 39 143 q-209 -111 -383 -237q-59 -43 -127 -95z" />
<glyph unicode="q" horiz-adv-x="1261" d="M-70 180q0 162 49.5 317.5t145.5 280.5t238.5 208t328.5 99l135 -206q25 39 105 135l201 -172q-203 -264 -336 -566l-6 -4q119 31 278.5 106t202.5 97l45 -207q-121 -88 -402 -227q-111 -55 -200 -88l-64 70q-143 -330 -229 -605l-234 158q78 223 170 430 q-78 -35 -174 -61zM217 240q219 59 399 290q53 117 80 291q-211 -20 -346 -186q-133 -164 -133 -395z" />
<glyph unicode="r" horiz-adv-x="1196" d="M-139 383q170 184 229.5 258t102.5 127q-60 66 -115 150q98 133 246 276l190 -147q-23 -94 -39 -138q264 29 381 57.5t203 51.5l57 -244q-84 -25 -176 -43q-141 -223 -235 -473q340 117 501 217l45 -207q-188 -123 -493 -252q-98 -41 -189 -71l-217 217q133 305 285 526 q-143 -12 -254 -16q-33 -61 -176 -307l-152 -97z" />
<glyph unicode="s" horiz-adv-x="1189" d="M-201 326l211 149q143 -150 211 -200t121 -85q57 6 186 39l-340 322q-47 49 -73 88q78 139 268 289q178 139 340 186l328 -264q-35 -139 -164 -369l-219 164q43 63 75.5 137t38.5 99q-115 -43 -235 -156q-43 -41 -78 -84q39 -59 119 -125q135 -117 227 -201 q227 78 385 160l43 -207q-164 -117 -461 -217q-275 -92 -506 -123q-147 98 -258 187q-100 88 -219 211z" />
<glyph unicode="t" horiz-adv-x="915" d="M-129 180q121 401 412 846q90 139 192 268l182 -168q-79 -110 -147 -221q190 20 281 45l47 -221q-180 -45 -459 -53q-125 -246 -186 -447q166 29 354 83.5t379 162.5l43 -207q-186 -129 -426 -221q-236 -90 -418 -102z" />
<glyph unicode="u" horiz-adv-x="1228" d="M-102 180q29 231 143.5 456.5t294.5 469.5l211 -162q-287 -387 -363 -704q2 0 38 11t93 44q145 82 269 235q143 291 274 476l219 -170q-193 -283 -313 -560l-8 -4q131 35 285.5 107t197.5 96l43 -207q-127 -92 -399 -227q-111 -55 -201 -88l-180 201q-129 -123 -332 -209 z" />
<glyph unicode="v" horiz-adv-x="1222" d="M-96 180q37 213 100 373q100 260 256 543l225 -154q-119 -211 -168 -340q-74 -195 -106 -344q193 88 494 524q90 129 169 269l236 -154q-180 -299 -377 -520q121 6 281 43t219 55l45 -207q-176 -94 -455 -174q-76 -20 -129 -31l-125 148q-199 -176 -393 -266z" />
<glyph unicode="w" horiz-adv-x="1867" d="M-84 180q43 219 102 377q96 252 254 539l226 -154q-119 -211 -168 -340q-74 -195 -107 -344q135 61 338 303q205 242 363 516l225 -153q-195 -342 -256 -529q-23 -72 -37 -137q193 88 496 524q88 129 168 269l235 -154q-180 -299 -377 -520q121 6 281 43t219 55l45 -207 q-176 -94 -455 -174q-76 -20 -129 -31q-2 0 -60 68t-67 78q-182 -166 -391 -264l-266 198l18 101q-180 -176 -401 -281z" />
<glyph unicode="x" horiz-adv-x="1189" d="M-139 324l149 151q43 -76 78 -121q96 100 168 156q-72 213 -100 465l256 119q33 -244 80 -394q102 96 203.5 184.5t230.5 176.5l231 -158q-236 -168 -575 -457q35 -90 77 -165q252 74 359.5 117.5t181.5 76.5l43 -207q-348 -193 -719 -323q-102 174 -166 313 q-70 -66 -131 -132t-137 -144q-113 137 -229 342z" />
<glyph unicode="y" horiz-adv-x="1241" d="M-299 -147q137 121 305 204l-119 86q18 270 281 697q82 133 180 266l213 -162q-358 -504 -387 -741q109 16 174 51q131 70 209 203q176 352 315 549l218 -170q-202 -308 -304 -535q332 96 465 174l45 -207q-164 -123 -366 -223q-72 -37 -125 -55l-100 110 q-57 -260 -136 -415q-74 -143 -209 -287q-225 6 -493 72q-84 20 -154 45zM-92 -297q188 -43 311 -47q133 113 209 354q-334 -135 -520 -307z" />
<glyph unicode="z" horiz-adv-x="1044" d="M-176 172q37 170 67 240q393 209 633 352q-90 34 -242 34q-104 0 -237 -16l164 277q47 10 106 10q123 0 224.5 -48t205.5 -120l113 76l111 -213q-268 -190 -487.5 -317t-366.5 -207q535 33 940 235l43 -207q-193 -121 -484 -215q-309 -96 -544 -108z" />
<glyph unicode="{" horiz-adv-x="1003" d="M188 762l86 168q123 -29 199 -25t92 33q39 70 90.5 162t122.5 182q168 211 408 283l92 -181q-240 -106 -412 -421q-49 -88 -102 -179q-111 -55 -256 -45q74 -158 67 -290q-180 -319 -137 -746l-198 -43q-82 260 -13 549q43 180 140 358q29 57 -95 142q-37 25 -84 53z" />
<glyph unicode="|" horiz-adv-x="1028" d="M412 -240v1737l141 -129v-1747z" />
<glyph unicode="}" horiz-adv-x="1003" d="M-346 -282q240 106 412 421q49 88 102 179q111 55 256 45q-74 158 -67 290q180 319 137 746l198 43q82 -260 13 -549q-43 -180 -140 -358q-29 -57 95 -142q37 -25 84 -53l-86 -168q-123 29 -199 25t-92 -33q-39 -70 -90.5 -162t-122.5 -182q-168 -211 -408 -283z" />
<glyph unicode="~" horiz-adv-x="1269" d="M119 616l74 232q106 20 172.5 20t131 -37.5t126 -84t127 -84t131 -37.5t118.5 6l-73 -232q-199 -47 -303 19q-63 37 -123 83t-126.5 84t-133 38t-121.5 -7z" />
<glyph />
<glyph unicode="&#xa1;" horiz-adv-x="987" d="M-2 25q172 360 395 716q76 121 166 260l223 -206q-303 -440 -557 -971zM709 1274q0 80 55 135t135 55t135.5 -55t55.5 -135q0 -123 -117 -176q-35 -15 -74 -15q-76 0 -135 56q-55 55 -55 135z" />
<glyph unicode="&#xa2;" horiz-adv-x="1245" d="M2 33l148 207l-64 53q-39 492 356 799q133 102 271 155l106 -67l158 209l141 -109l-143 -199l96 -59q-25 -131 -119 -332l-258 129q57 88 84 180q-98 -41 -185 -113.5t-138 -166.5q-92 -176 -78 -377q254 47 422 109l71 -234q-244 -111 -505 -154l-72 58l-150 -197z" />
<glyph unicode="&#xa3;" horiz-adv-x="1349" d="M-98 186l116 248q164 -72 324 -127l-188 139q68 145 127 246q-61 33 -119 66l98 178l125 -68q16 29 34.5 57.5t37.5 57.5q172 262 417 389l404 -258q-57 -217 -145 -369l-240 129q84 131 123 285q-147 -111 -295 -303q-20 -29 -76 -111q106 -45 248 -96l-76 -188 q-100 33 -272 106q-11 -20 -142 -280q217 -68 504 -119l-80 -252q-281 41 -434 88q-244 74 -491 182z" />
<glyph unicode="&#xa4;" horiz-adv-x="1398" d="M27 444q102 72 198 125q-8 41 -8 84q0 176 119 299q-37 86 -98 195l180 110q53 -80 121 -192q49 12 102 12q176 0 295 -123q100 45 190 101l109 -183q-109 -72 -191 -120q12 -47 13 -99q0 -176 -129 -301q55 -121 102 -192l-180 -109q-72 98 -127 197q-35 -8 -82 -8 q-186 0 -309 127q-119 -55 -195 -101zM438 653q0 -80 57.5 -137t141.5 -57q80 0 137 57q55 55 55 138t-55 139.5t-138 56.5t-140.5 -56.5t-57.5 -140.5z" />
<glyph unicode="&#xa5;" horiz-adv-x="1349" d="M-10 395l88 127q68 -53 172 -119q16 35 43 82q-98 66 -168 119l88 125l145 -100q10 457 97 768l235 -226q-47 -180 -65 -419q135 98 213 168q135 121 290 280l205 -186q-184 -190 -293 -275q-197 -156 -403 -280q94 -53 170 -88l-76 -131q-78 31 -188 94l-41 -82 q88 -53 170 -90l-76 -129q-68 29 -156 76q-39 -92 -73 -195l-252 201l65 147q-115 74 -190 133z" />
<glyph unicode="&#xa6;" horiz-adv-x="1028" d="M412 -240v670l141 -129v-680zM412 827v670l141 -129v-678z" />
<glyph unicode="&#xa7;" horiz-adv-x="1445" d="M-29 -184q428 90 566 254l-433 262q-63 41 -102 76q74 180 219 327q133 135 279 201q-72 45 -115 86q135 236 335 376t425 195l166 -225q-182 -29 -315.5 -106.5t-213.5 -188.5l365 -215l78 -246q-152 -244 -412 -426l55 -159q-106 -172 -301.5 -288t-447.5 -171z M387 489q35 -20 211 -145q213 135 340 330q-104 68 -207 125q-98 -37 -191.5 -122t-152.5 -188z" />
<glyph unicode="&#xa8;" horiz-adv-x="727" d="M147 1444q0 68 47.5 115t114.5 47q68 0 115 -47.5t47 -114.5q0 -68 -47 -116t-115 -48t-115 48t-47 116zM672 1245q0 68 48 116t116 48t114.5 -48t46.5 -116t-47 -115t-114 -47q-68 0 -117 47q-47 47 -47 115z" />
<glyph unicode="&#xa9;" horiz-adv-x="2461" d="M174 504q0 172 54.5 341t160.5 310l242 -90q-92 -117 -145.5 -272.5t-53.5 -294t36 -248t110 -193.5q166 -182 466 -182q160 0 317 70.5t282.5 193.5t203.5 289t78 358q0 250 -174 406q-266 240 -784 113q-178 -43 -332 -117l-72 201q229 129 549 172q309 43 551 -45 q324 -117 451 -408q63 -143 63 -311q0 -248 -97.5 -458t-257 -363.5t-363.5 -240.5t-420 -87t-378.5 71.5t-271.5 190.5q-215 242 -215 594zM621 285q113 479 473 782q123 104 278 170l293 -213q-33 -127 -129 -289q-27 -45 -53 -82l-191 111q74 133 91.5 179t27.5 83 q-186 -90 -330 -285q-128 -182 -163 -391q276 33 548 101l45 -211q-180 -63 -290 -86q-178 -37 -398 -62z" />
<glyph unicode="&#xaa;" horiz-adv-x="1253" d="M211 932q0 262 149 457q162 209 433 231l100 -154q12 18 82 99l151 -121q-156 -207 -262 -438q104 33 199.5 76.5t124.5 60.5l35 -172q-102 -74 -241.5 -140.5t-176.5 -78.5l-123 137q-117 -86 -276 -135zM440 979q166 43 248 147q70 94 105 275q-260 -53 -330 -277 q-21 -69 -23 -145z" />
<glyph unicode="&#xab;" horiz-adv-x="1525" d="M131 684l117 205q190 113 450 199l103 -179q-244 -119 -387 -210q90 -172 200 -340l-159 -121q-143 162 -324 446zM721 631l117 205q190 113 450 199l103 -179q-244 -119 -387 -210q90 -172 200 -340l-159 -121q-143 162 -324 446z" />
<glyph unicode="&#xac;" horiz-adv-x="1247" d="M113 635l94 233q393 -102 774 -270q-127 -317 -193 -463l-237 105q59 115 106 223q-279 106 -544 172z" />
<glyph unicode="&#xad;" horiz-adv-x="1705" />
<glyph unicode="&#xae;" horiz-adv-x="2463" d="M174 504q0 172 54.5 341t160.5 310l242 -90q-92 -117 -145.5 -272.5t-53.5 -294t36 -248t110 -193.5q166 -182 466 -182q160 0 317 70.5t282.5 193.5t203.5 289t78 358q0 250 -174 406q-266 240 -784 113q-178 -43 -332 -117l-72 201q229 129 549 172q309 43 551 -45 q324 -117 451 -408q63 -143 63 -311q0 -248 -97.5 -458t-257 -363.5t-363.5 -240.5t-420 -87t-378.5 71.5t-271.5 190.5q-215 242 -215 594zM588 238q102 225 178 350q133 221 260 373q-100 14 -158 14l72 207q403 -18 668 -138l116 -264q-143 -199 -467 -329l183 -265 l-236 -139l-229 416q-106 -186 -197 -400zM1044 582q182 74 336 184q49 35 88 72q-150 72 -362 110l127 -104q-93 -119 -189 -262z" />
<glyph unicode="&#xaf;" horiz-adv-x="727" d="M125 1475l86 233q336 -84 678 -233l-96 -230q-313 141 -668 230z" />
<glyph unicode="&#xb0;" horiz-adv-x="759" d="M192 1158.5q0 101.5 69 170t173 68.5q98 0 168 -69.5t70 -172.5q0 -98 -70 -167.5t-170 -69.5t-170 69.5t-70 171zM334 1156q0 -40 28.5 -67.5t68.5 -27.5t67.5 27.5t27.5 67.5t-27.5 69t-67.5 29t-68.5 -29t-28.5 -69z" />
<glyph unicode="&#xb1;" horiz-adv-x="1247" d="M-47 119l94 233q393 -102 774 -270l-94 -227q-395 170 -774 264zM164 746l92 233q98 -27 266 -80q72 186 113 273l227 -92q-47 -106 -106 -260q225 -88 274 -111l-92 -227q-111 47 -268 106q-63 -188 -86 -272l-236 82q33 109 88 270q-133 43 -272 78z" />
<glyph unicode="&#xb2;" horiz-adv-x="888" d="M131 1075q111 92 305 187q74 37 139.5 70.5t116.5 76.5q-150 43 -317 29l90 186q229 29 426 -68l67 -215q-109 -135 -260 -208q-63 -31 -124.5 -56.5t-124.5 -64.5q131 -43 323 -68l-100 -211q-164 16 -373 84q-57 18 -102 37z" />
<glyph unicode="&#xb3;" horiz-adv-x="894" d="M92 975q303 -80 453 41q-129 80 -281 127l90 160q223 0 359 96q-152 55 -340 39l92 188q20 4 43 4h47q195 0 340 -82l63 -221q-152 -127 -311 -170q41 -16 101 -49l55 -174q-221 -240 -559 -191q-55 8 -111 27z" />
<glyph unicode="&#xb4;" horiz-adv-x="727" d="M182 1262q223 172 439 411l198 -192q-182 -170 -483 -377z" />
<glyph unicode="&#xb5;" horiz-adv-x="1415" d="M-195 -256q115 395 220 637q168 395 372 725l213 -162q-227 -352 -368 -702q223 57 405 288q143 291 275 476l217 -170q-190 -287 -314 -560l-8 -4q113 31 283 107l57 -225q-272 -158 -412 -201l-163 182q-100 -92 -169 -129t-126 -61l-119 100q-72 -209 -141 -465z" />
<glyph unicode="&#xb6;" horiz-adv-x="1572" d="M193 1217l286 313q156 16 326 -4.5t289 -55.5q223 -66 501 -233l9 -283q-113 53 -273 119q-217 -328 -420.5 -684t-382.5 -768l-233 209q147 322 340 662q-305 297 -442 725zM504 1241q92 -264 287 -487q184 301 262 420q-242 70 -478 69h-34q-18 0 -37 -2z" />
<glyph unicode="&#xb7;" horiz-adv-x="778" d="M119 627q0 81 55.5 136.5t134.5 55.5q80 0 135.5 -55.5t55.5 -135.5q0 -123 -117 -176q-115 -49 -209 41q-55 53 -55 134z" />
<glyph unicode="&#xb8;" horiz-adv-x="727" d="M-154 -272q183 18 320 59q-41 49 -98 94l176 238l200 8l-141 -205q51 -39 152 -135l-72 -154q-205 -61 -508 -71z" />
<glyph unicode="&#xb9;" horiz-adv-x="686" d="M172 920q104 188 272 430q-84 -37 -161 -78l-70 176q211 111 405 180l170 -176q-240 -340 -423 -704z" />
<glyph unicode="&#xba;" horiz-adv-x="1062" d="M248 936q0 137 63 297q80 193 254 295q125 72 254 92l252 -211q-41 -274 -203 -453q-147 -156 -399 -202zM481 983q147 35 226 127q80 96 120 223q12 43 13 80q-72 -4 -156 -61q-74 -51 -123 -129q-70 -103 -80 -240z" />
<glyph unicode="&#xbb;" horiz-adv-x="1599" d="M129 378q227 115 385 224q-55 106 -197 327l158 121q186 -211 326 -432l-117 -205q-219 -127 -453 -213zM719 325q227 115 385 224q-55 106 -197 327l158 121q186 -211 326 -432l-117 -205q-219 -127 -453 -213z" />
<glyph unicode="&#xbc;" horiz-adv-x="1851" d="M51 137q502 539 940 940q156 145 328 297l121 -139q-391 -344 -586 -539q-342 -338 -666 -706zM154 920q104 188 272 430q-84 -37 -162 -78l-69 176q211 111 405 180l170 -176q-240 -340 -424 -704zM819 358q154 219 381 396l156 -133q-162 -134 -283 -277 q147 -33 156 -35q111 180 256 365l155 -131q-96 -127 -196 -293l125 -43l-86 -182l-70 20t-72 21q-57 -109 -124 -263l-173 154q37 90 76 166q-84 18 -276 55z" />
<glyph unicode="&#xbd;" horiz-adv-x="1832" d="M51 137q502 539 940 940q156 145 328 297l121 -139q-391 -344 -586 -539q-342 -338 -666 -706zM156 920q104 188 272 430q-84 -37 -161 -78l-70 176q211 111 405 180l170 -176q-240 -340 -423 -704zM795 155q111 92 305 187q74 37 139.5 70.5t116.5 76.5q-150 43 -317 29 l90 186q229 29 426 -68l67 -215q-109 -135 -260 -208q-63 -31 -124.5 -56.5t-124.5 -64.5q131 -43 323 -68l-100 -211q-164 16 -373 84q-57 18 -102 37z" />
<glyph unicode="&#xbe;" horiz-adv-x="2101" d="M129 975q303 -80 453 41q-129 80 -281 127l90 160q223 0 359 96q-152 55 -340 39l92 188q20 4 43 4h47q195 0 340 -82l63 -221q-152 -127 -311 -170q41 -16 100 -49l56 -174q-221 -240 -559 -191q-55 8 -111 27zM291 137q502 539 938 940q158 145 330 297l120 -139 q-391 -344 -585 -539q-342 -338 -666 -706zM1067 358q162 225 381 396l158 -133q-156 -127 -283 -279q74 -12 156 -33q111 180 256 365l153 -131q-96 -127 -196 -293l125 -43l-84 -182l-144 43q-53 -100 -125 -265l-170 154q37 90 76 166q-84 18 -276 55z" />
<glyph unicode="&#xbf;" horiz-adv-x="1208" d="M-16 182q25 233 178 389q68 68 146.5 121t154.5 105.5t140.5 114t101.5 145.5l241 -179q-59 -137 -223 -258q-70 -49 -141.5 -94t-132.5 -94q-137 -115 -162 -268q221 -31 580 110l81 -258q-438 -199 -780 -119zM787 1313q0 123 116 176q115 49 209 -41q55 -53 55.5 -134 t-55 -136.5t-135.5 -55.5t-135 55.5t-55 135.5z" />
<glyph unicode="&#xc0;" horiz-adv-x="1404" d="M-168 147q133 250 350 523l-123 69l177 222l133 -74q250 266 483 442l152 -137q31 127 49 250l256 -221q-121 -614 -490 -1317l-233 213q66 119 94 174q-112 124 -266 233q-227 -291 -359 -583zM592 733q111 -84 203 -182q125 311 184 547q-180 -142 -387 -365zM836 1759 l164 187q266 -231 436 -428l-148 -154q-195 205 -452 395z" />
<glyph unicode="&#xc1;" horiz-adv-x="1404" d="M-168 147q133 250 350 523l-123 69l177 222l133 -74q250 266 483 442l152 -137q31 127 49 250l256 -221q-121 -614 -490 -1317l-233 213q66 119 94 174q-112 124 -266 233q-227 -291 -359 -583zM592 733q111 -84 203 -182q125 311 184 547q-180 -142 -387 -365zM936 1690 q287 113 388 163t171 89l104 -244q-281 -127 -584 -207z" />
<glyph unicode="&#xc2;" horiz-adv-x="1404" d="M-168 147q133 250 350 523l-123 69l177 222l133 -74q250 266 483 442l152 -137q31 127 49 250l256 -221q-121 -614 -490 -1317l-233 213q66 119 94 174q-112 124 -266 233q-227 -291 -359 -583zM592 733q111 -84 203 -182q125 311 184 547q-180 -142 -387 -365zM760 1683 q184 100 289.5 139.5t183.5 63.5l244 -125q84 -168 153 -424l-203 -51q-84 203 -174 361q-172 -47 -254 -83t-141 -63z" />
<glyph unicode="&#xc3;" horiz-adv-x="1404" d="M-168 147q133 250 350 523l-123 69l177 222l133 -74q250 266 483 442l152 -137q31 127 49 250l256 -221q-121 -614 -490 -1317l-233 213q66 119 94 174q-112 124 -266 233q-227 -291 -359 -583zM592 733q111 -84 203 -182q125 311 184 547q-180 -142 -387 -365zM860 1796 q86 29 170 40t113 11q70 -20 190 -129q45 -39 86 -73t74 -42l164 10l22 -190q-86 -29 -172 -40t-113 -11q-49 14 -97 50t-93 76t-85 73.5t-73 41.5l-166 -10z" />
<glyph unicode="&#xc4;" horiz-adv-x="1404" d="M-168 147q133 250 350 523l-123 69l177 222l133 -74q250 266 483 442l152 -137q31 127 49 250l256 -221q-121 -614 -490 -1317l-233 213q66 119 94 174q-112 124 -266 233q-227 -291 -359 -583zM592 733q111 -84 203 -182q125 311 184 547q-180 -142 -387 -365zM807 1690 q0 68 48 116t116 48t114.5 -48.5t46.5 -115.5q0 -68 -47 -115t-114 -47q-68 0 -117 47q-47 47 -47 115zM1333 1493q0 68 47 115t115 47t115 -47t47 -115t-47.5 -115t-114.5 -47q-68 0 -115 47t-47 115z" />
<glyph unicode="&#xc5;" horiz-adv-x="1404" d="M-168 147q133 250 350 523l-123 69l177 222l133 -74q250 266 483 442l152 -137q31 127 49 250l256 -221q-121 -614 -490 -1317l-233 213q66 119 94 174q-112 124 -266 233q-227 -291 -359 -583zM592 733q111 -84 203 -182q125 311 184 547q-180 -142 -387 -365z M1106 1662.5q0 101.5 69 170t173 68.5q102 0 168 -70q70 -72 70 -172q0 -96 -70 -168q-66 -70 -168 -69.5t-172 70t-70 171zM1248 1660q0 -40 28.5 -67.5t68.5 -27.5t68.5 27.5t28.5 67.5t-28.5 68.5t-68.5 28.5t-68.5 -28.5t-28.5 -68.5z" />
<glyph unicode="&#xc6;" horiz-adv-x="1947" d="M-168 147q141 258 336 508l-148 84l177 222q102 -57 151 -89q244 279 465 457l154 -141q31 125 43 235l202 -180l23 127q324 -41 704 -196l-110 -261q-291 123 -592 179q-33 -143 -78 -287q244 -63 461 -103l-90 -251q-236 47 -457 112q-53 -129 -117 -264 q311 -78 662 -111l-92 -262q-365 35 -690 123l-70 -133l-231 211l96 176q-106 113 -223 197q-211 -285 -336 -559zM573 705q86 -76 166 -168q131 301 197 538q-199 -182 -363 -370z" />
<glyph unicode="&#xc7;" horiz-adv-x="1245" d="M-242 -309q183 18 320 59q-41 49 -98 94l110 150l-196 182q92 401 327 727q268 367 651 529l390 -281q-53 -174 -193 -403q-39 -63 -74 -113l-237 131q139 240 186 403q-256 -127 -452 -389q-188 -256 -232 -526q324 23 590 154l80 -234q-258 -160 -596 -217 q-41 -6 -78 -12l-41 -60q51 -39 152 -135l-72 -153q-205 -61 -508 -72z" />
<glyph unicode="&#xc8;" horiz-adv-x="1243" d="M-111 229q143 330 426 736q80 117 156 209q-143 23 -235 22l96 254q575 -18 1022 -209l-117 -299q-309 147 -702 221l176 -145q-98 -119 -179 -242q203 -45 404 -63l-92 -260q-313 55 -459 94q-77 -130 -147 -275q279 -61 624 -73l-84 -265q-309 6 -655 82zM668 1771 l164 187q266 -231 436 -428l-148 -154q-195 205 -452 395z" />
<glyph unicode="&#xc9;" horiz-adv-x="1243" d="M-111 229q143 330 426 736q80 117 156 209q-143 23 -235 22l96 254q575 -18 1022 -209l-117 -299q-309 147 -702 221l176 -145q-98 -119 -179 -242q203 -45 404 -63l-92 -260q-313 55 -459 94q-77 -130 -147 -275q279 -61 624 -73l-84 -265q-309 6 -655 82zM824 1667 q287 113 388 163t171 89l104 -244q-281 -127 -584 -207z" />
<glyph unicode="&#xca;" horiz-adv-x="1243" d="M-111 229q143 330 426 736q80 117 156 209q-143 23 -235 22l96 254q575 -18 1022 -209l-117 -299q-309 147 -702 221l176 -145q-98 -119 -179 -242q203 -45 404 -63l-92 -260q-313 55 -459 94q-77 -130 -147 -275q279 -61 624 -73l-84 -265q-309 6 -655 82zM570 1755 q184 100 289.5 139.5t183.5 63.5l244 -125q84 -168 153 -424l-203 -51q-84 203 -174 361q-172 -47 -254 -83t-141 -63z" />
<glyph unicode="&#xcb;" horiz-adv-x="1243" d="M-111 229q143 330 426 736q80 117 156 209q-143 23 -235 22l96 254q575 -18 1022 -209l-117 -299q-309 147 -702 221l176 -145q-98 -119 -179 -242q203 -45 404 -63l-92 -260q-313 55 -459 94q-77 -130 -147 -275q279 -61 624 -73l-84 -265q-309 6 -655 82zM641 1727 q0 68 48 116t116 48t114.5 -48.5t46.5 -115.5q0 -68 -47 -115t-114 -47q-68 0 -117 47q-47 47 -47 115zM1167 1530q0 68 47 115t115 47t115 -47t47 -115t-47.5 -115t-114.5 -47q-68 0 -115 47t-47 115z" />
<glyph unicode="&#xcc;" horiz-adv-x="737" d="M-129 158q301 678 733 1253l209 -213q-209 -289 -342 -528q-236 -426 -365 -729zM469 1771l164 187q266 -231 436 -428l-148 -154q-195 205 -452 395z" />
<glyph unicode="&#xcd;" horiz-adv-x="737" d="M-129 158q301 678 733 1253l209 -213q-209 -289 -342 -528q-236 -426 -365 -729zM781 1649q287 113 388 163t171 89l104 -244q-281 -127 -584 -207z" />
<glyph unicode="&#xce;" horiz-adv-x="737" d="M-129 158q301 678 733 1253l209 -213q-209 -289 -342 -528q-236 -426 -365 -729zM371 1683q184 100 289.5 139.5t183.5 63.5l244 -125q84 -168 153 -424l-203 -51q-84 203 -174 361q-172 -47 -254 -83t-141 -63z" />
<glyph unicode="&#xcf;" horiz-adv-x="737" d="M-129 158q301 678 733 1253l209 -213q-209 -289 -342 -528q-236 -426 -365 -729zM396 1690q0 68 48 116t116 48t114.5 -48.5t46.5 -115.5q0 -68 -47 -115t-114 -47q-68 0 -117 47q-47 47 -47 115zM922 1493q0 68 47 115t115 47t115 -47t47 -115t-47.5 -115t-114.5 -47 q-68 0 -115 47t-47 115z" />
<glyph unicode="&#xd0;" horiz-adv-x="1417" d="M-117 188q109 246 228 461q-84 20 -170 39l86 230q82 -16 221 -52q88 133 217 289q-158 23 -256 23l88 243q246 -10 473 -48t444 -132l121 -274q-98 -416 -436 -688q-311 -250 -754 -332zM244 252q279 80 493 274q227 205 299 478q-219 92 -512 141l181 -148 q-88 -111 -164 -223q68 -25 145 -55l-96 -230q-96 39 -187 70q-85 -143 -159 -307z" />
<glyph unicode="&#xd1;" horiz-adv-x="1488" d="M-143 158q117 281 338 665q199 348 405 619l203 -199q4 -342 37 -719q219 461 493 838l209 -193q-336 -469 -641 -1189l-272 -56q-66 483 -86 922q-274 -461 -449 -905zM764 1856q86 29 170 40t113 11q70 -20 190 -129q45 -39 86 -73t74 -42l164 10l22 -190 q-86 -29 -172 -40t-113 -11q-49 14 -97 50t-93 76t-85 73.5t-73 41.5l-166 -10z" />
<glyph unicode="&#xd2;" horiz-adv-x="1404" d="M-37 172q59 631 518 1016q160 135 375 235q272 -139 479 -356l-92 -276q-217 195 -405 309q-209 -109 -371 -369q-168 -268 -188 -545q322 88 548 437q76 119 134 270l282 -102q-137 -385 -358 -596q-240 -229 -619 -301zM746 1745l164 187q266 -231 436 -428l-148 -154 q-195 205 -452 395z" />
<glyph unicode="&#xd3;" horiz-adv-x="1404" d="M-37 172q59 631 518 1016q160 135 375 235q272 -139 479 -356l-92 -276q-217 195 -405 309q-209 -109 -371 -369q-168 -268 -188 -545q322 88 548 437q76 119 134 270l282 -102q-137 -385 -358 -596q-240 -229 -619 -301zM1086 1596q287 113 388 163t171 89l104 -244 q-281 -127 -584 -207z" />
<glyph unicode="&#xd4;" horiz-adv-x="1404" d="M-37 172q59 631 518 1016q160 135 375 235q272 -139 479 -356l-92 -276q-217 195 -405 309q-209 -109 -371 -369q-168 -268 -188 -545q322 88 548 437q76 119 134 270l282 -102q-137 -385 -358 -596q-240 -229 -619 -301zM717 1706q184 100 289.5 139.5t183.5 63.5 l244 -125q84 -168 153 -424l-203 -51q-84 203 -174 361q-172 -47 -254 -83t-141 -63z" />
<glyph unicode="&#xd5;" horiz-adv-x="1404" d="M-37 172q59 631 518 1016q160 135 375 235q272 -139 479 -356l-92 -276q-217 195 -405 309q-209 -109 -371 -369q-168 -268 -188 -545q322 88 548 437q76 119 134 270l282 -102q-137 -385 -358 -596q-240 -229 -619 -301zM778 1798q86 29 170 40t113 11q70 -20 190 -129 q45 -39 86 -73t74 -42l164 10l22 -190q-86 -29 -172 -40t-113 -11q-49 14 -97 50t-93 76t-85 73.5t-73 41.5l-166 -10z" />
<glyph unicode="&#xd6;" horiz-adv-x="1404" d="M-37 172q59 631 518 1016q160 135 375 235q272 -139 479 -356l-92 -276q-217 195 -405 309q-209 -109 -371 -369q-168 -268 -188 -545q322 88 548 437q76 119 134 270l282 -102q-137 -385 -358 -596q-240 -229 -619 -301zM738 1710q0 68 48 116t116 48t114.5 -48.5 t46.5 -115.5q0 -68 -47 -115t-114 -47q-68 0 -117 47q-47 47 -47 115zM1264 1513q0 68 47 115t115 47t115 -47t47 -115t-47.5 -115t-114.5 -47q-68 0 -115 47t-47 115z" />
<glyph unicode="&#xd7;" horiz-adv-x="1247" d="M88 477q139 88 281 164q-68 133 -129 272l221 105q25 -59 57 -125l68 -135q256 129 299 147l108 -219q-61 -27 -288 -147q119 -205 167 -273l-221 -116q-64 92 -166 270q-242 -141 -276 -162z" />
<glyph unicode="&#xd8;" horiz-adv-x="1423" d="M-166 -80q119 115 191 195l-62 57q59 631 518 1016q160 135 375 235q141 -70 256 -157l193 207l145 -138l-182 -200l67 -68l-92 -276q-137 -385 -358 -596q-240 -229 -619 -301l-92 83q-106 -106 -197 -200zM279 186q322 88 548 437q76 119 134 270l282 -102 q-217 195 -405 309q-209 -109 -371 -369q-168 -268 -188 -545z" />
<glyph unicode="&#xd9;" horiz-adv-x="1392" d="M-102 197q254 670 682 1226l221 -219q-221 -268 -432 -680q-61 -123 -111 -237q246 55 414 123v-4q326 672 551 946l225 -219q-319 -385 -657 -1235l-232 219q-150 -78 -403 -168zM629 1771l164 187q266 -231 436 -428l-148 -154q-195 205 -452 395z" />
<glyph unicode="&#xda;" horiz-adv-x="1392" d="M-102 197q254 670 682 1226l221 -219q-221 -268 -432 -680q-61 -123 -111 -237q246 55 414 123v-4q326 672 551 946l225 -219q-319 -385 -657 -1235l-232 219q-150 -78 -403 -168zM899 1649q287 113 388 163t171 89l104 -244q-281 -127 -584 -207z" />
<glyph unicode="&#xdb;" horiz-adv-x="1392" d="M-102 197q254 670 682 1226l221 -219q-221 -268 -432 -680q-61 -123 -111 -237q246 55 414 123v-4q326 672 551 946l225 -219q-319 -385 -657 -1235l-232 219q-150 -78 -403 -168zM695 1724q184 100 289.5 139.5t183.5 63.5l244 -125q84 -168 153 -424l-203 -51 q-84 203 -174 361q-172 -47 -254 -83t-141 -63z" />
<glyph unicode="&#xdc;" horiz-adv-x="1392" d="M-102 197q254 670 682 1226l221 -219q-221 -268 -432 -680q-61 -123 -111 -237q246 55 414 123v-4q326 672 551 946l225 -219q-319 -385 -657 -1235l-232 219q-150 -78 -403 -168zM772 1710q0 68 48 116t116 48t114.5 -48.5t46.5 -115.5q0 -68 -47 -115t-114 -47 q-68 0 -117 47q-47 47 -47 115zM1298 1513q0 68 47 115t115 47t115 -47t47 -115t-47.5 -115t-114.5 -47q-68 0 -115 47t-47 115z" />
<glyph unicode="&#xdd;" horiz-adv-x="1159" d="M27 135q86 215 123.5 283.5t78.5 134.5q-47 410 76 944l275 -252q-70 -272 -78 -522q324 283 569 635l229 -219q-381 -483 -798 -738q-113 -174 -221 -485zM711 1649q287 113 388 163t171 89l104 -244q-281 -127 -584 -207z" />
<glyph unicode="&#xde;" horiz-adv-x="1366" d="M-135 160q233 518 502 936q100 156 217 317l223 -196q-59 -82 -105 -152q141 -59 338 -174l160 -359q-238 -147 -371 -204q-213 -88 -432 -131l-100 163q-109 -217 -195 -419zM352 469q302 64 529 203q-131 82 -326 164q-98 -166 -203 -367z" />
<glyph unicode="&#xdf;" horiz-adv-x="1390" d="M-178 100q90 299 379 842q82 152 157 283q141 92 330 151q297 -80 520 -231l33 -262q-266 -111 -385 -242q43 -66 124 -137.5t167 -153.5q154 72 254 125l45 -207q-346 -244 -801 -340q-197 115 -332 250l160 193q109 -104 238 -181q82 20 176 54l-217 211 q-133 131 -168 184q129 195 442 375q-129 70 -321 135q-244 -393 -447 -891q-68 -168 -113 -317z" />
<glyph unicode="&#xe0;" horiz-adv-x="1261" d="M-70 180q0 162 49.5 317.5t145.5 280.5t238.5 208t328.5 99l135 -206q25 39 105 135l201 -172q-203 -264 -336 -566l-6 -4q119 31 278.5 106t202.5 97l45 -207q-121 -88 -402 -227q-111 -55 -200 -88l-158 176q-162 -127 -373 -184zM217 240q219 59 399 290 q53 117 80 291q-211 -20 -346 -186q-133 -164 -133 -395zM596 1632l232 127q135 -246 252 -557l-201 -88q-119 276 -283 518z" />
<glyph unicode="&#xe1;" horiz-adv-x="1261" d="M-70 180q0 162 49.5 317.5t145.5 280.5t238.5 208t328.5 99l135 -206q25 39 105 135l201 -172q-203 -264 -336 -566l-6 -4q119 31 278.5 106t202.5 97l45 -207q-121 -88 -402 -227q-111 -55 -200 -88l-158 176q-162 -127 -373 -184zM217 240q219 59 399 290 q53 117 80 291q-211 -20 -346 -186q-133 -164 -133 -395zM755 1262q223 172 439 411l198 -192q-182 -170 -483 -377z" />
<glyph unicode="&#xe2;" horiz-adv-x="1261" d="M-70 180q0 162 49.5 317.5t145.5 280.5t238.5 208t328.5 99l135 -206q25 39 105 135l201 -172q-203 -264 -336 -566l-6 -4q119 31 278.5 106t202.5 97l45 -207q-121 -88 -402 -227q-111 -55 -200 -88l-158 176q-162 -127 -373 -184zM217 240q219 59 399 290 q53 117 80 291q-211 -20 -346 -186q-133 -164 -133 -395zM499 1407q229 125 473 221l244 -125q55 -205 70.5 -290t28.5 -152l-203 -51q-59 222 -125 372q-238 -80 -389 -157z" />
<glyph unicode="&#xe3;" horiz-adv-x="1261" d="M-70 180q0 162 49.5 317.5t145.5 280.5t238.5 208t328.5 99l135 -206q25 39 105 135l201 -172q-203 -264 -336 -566l-6 -4q119 31 278.5 106t202.5 97l45 -207q-121 -88 -402 -227q-111 -55 -200 -88l-158 176q-162 -127 -373 -184zM217 240q219 59 399 290 q53 117 80 291q-211 -20 -346 -186q-133 -164 -133 -395zM561 1499q76 25 165 37t118 12q49 -14 95 -51t90 -77t85 -73.5t80 -41.5l164 12l24 -193q-160 -49 -286 -49q-49 14 -94.5 50t-89.5 76t-84.5 74t-79.5 42l-166 -12z" />
<glyph unicode="&#xe4;" horiz-adv-x="1261" d="M-70 180q0 162 49.5 317.5t145.5 280.5t238.5 208t328.5 99l135 -206q25 39 105 135l201 -172q-203 -264 -336 -566l-6 -4q119 31 278.5 106t202.5 97l45 -207q-121 -88 -402 -227q-111 -55 -200 -88l-158 176q-162 -127 -373 -184zM217 240q219 59 399 290 q53 117 80 291q-211 -20 -346 -186q-133 -164 -133 -395zM544 1444q0 68 47.5 115t114.5 47q68 0 115 -47.5t47 -114.5q0 -68 -47 -116t-115 -48t-115 48t-47 116zM1069 1245q0 68 48 116t116 48t114.5 -48t46.5 -116t-47 -115t-114 -47q-68 0 -117 47q-47 47 -47 115z" />
<glyph unicode="&#xe5;" horiz-adv-x="1261" d="M-70 180q0 162 49.5 317.5t145.5 280.5t238.5 208t328.5 99l135 -206q25 39 105 135l201 -172q-203 -264 -336 -566l-6 -4q119 31 278.5 106t202.5 97l45 -207q-121 -88 -402 -227q-111 -55 -200 -88l-158 176q-162 -127 -373 -184zM217 240q219 59 399 290 q53 117 80 291q-211 -20 -346 -186q-133 -164 -133 -395zM796 1377.5q0 101.5 69 170t173 68.5q98 0 168 -69.5t70 -172.5q0 -98 -70 -167.5t-170 -69.5t-170 69.5t-70 171zM938 1375q0 -40 28.5 -67.5t68.5 -27.5t67.5 27.5t27.5 67.5t-27.5 69t-67.5 29t-68.5 -29 t-28.5 -69z" />
<glyph unicode="&#xe6;" horiz-adv-x="1718" d="M-70 180q0 162 49.5 317.5t145.5 280.5t238.5 208t328.5 99l84 -129q57 137 92 195l154 -162q106 66 207 98l346 -286q-51 -213 -194.5 -309.5t-342.5 -96.5q-115 0 -170 15q-33 -80 -41 -199q354 20 689 158q113 45 213 106l45 -207q-190 -121 -447 -213 q-270 -98 -518 -110l-252 231q-152 -143 -373 -231zM217 240q242 66 418 290q35 119 61 291q-211 -20 -346 -186q-133 -164 -133 -395zM954 594q119 0 215 65q113 78 113 218q-104 -49 -192.5 -124t-135.5 -159z" />
<glyph unicode="&#xe7;" horiz-adv-x="1087" d="M-180 -291q182 19 319 60q-41 49 -98 94l96 131l-203 186q0 145 19 226q80 338 391 544q139 92 283 137l327 -243q-10 -47 -57 -150q-78 -172 -123 -235l-258 164q111 139 139 233q-197 -84 -319 -270q-111 -168 -111 -375q502 66 873 264l45 -207q-322 -203 -701 -286 q-66 -16 -129 -25l-37 -53q51 -39 152 -135l-72 -154q-205 -61 -508 -72z" />
<glyph unicode="&#xe8;" horiz-adv-x="1101" d="M-72 180q0 283 154 516q111 162 251 256.5t269 134.5l346 -286q-51 -213 -194 -309.5t-342 -96.5q-96 0 -152 15q-33 -80 -41 -199q352 20 680 158q111 45 213 106l43 -207q-190 -121 -450 -213q-276 -98 -523 -110zM346 594q119 0 207 65q102 78 102 218 q-207 -113 -309 -283zM583 1632l232 127q135 -246 252 -557l-201 -88q-119 276 -283 518z" />
<glyph unicode="&#xe9;" horiz-adv-x="1101" d="M-72 180q0 283 154 516q111 162 251 256.5t269 134.5l346 -286q-51 -213 -194 -309.5t-342 -96.5q-96 0 -152 15q-33 -80 -41 -199q352 20 680 158q111 45 213 106l43 -207q-190 -121 -450 -213q-276 -98 -523 -110zM346 594q119 0 207 65q102 78 102 218 q-207 -113 -309 -283zM798 1262q223 172 439 411l198 -192q-182 -170 -483 -377z" />
<glyph unicode="&#xea;" horiz-adv-x="1101" d="M-72 180q0 283 154 516q111 162 251 256.5t269 134.5l346 -286q-51 -213 -194 -309.5t-342 -96.5q-96 0 -152 15q-33 -80 -41 -199q352 20 680 158q111 45 213 106l43 -207q-190 -121 -450 -213q-276 -98 -523 -110zM346 594q119 0 207 65q102 78 102 218 q-207 -113 -309 -283zM407 1407q229 125 473 221l244 -125q55 -205 70.5 -290t28.5 -152l-203 -51q-59 222 -125 372q-238 -80 -389 -157z" />
<glyph unicode="&#xeb;" horiz-adv-x="1101" d="M-72 180q0 283 154 516q111 162 251 256.5t269 134.5l346 -286q-51 -213 -194 -309.5t-342 -96.5q-96 0 -152 15q-33 -80 -41 -199q352 20 680 158q111 45 213 106l43 -207q-190 -121 -450 -213q-276 -98 -523 -110zM346 594q119 0 207 65q102 78 102 218 q-207 -113 -309 -283zM460 1428q0 68 47.5 115t114.5 47q68 0 115 -47.5t47 -114.5q0 -68 -47 -116t-115 -48t-115 48t-47 116zM985 1229q0 68 48 116t116 48t114.5 -48t46.5 -116t-47 -115t-114 -47q-68 0 -117 47q-47 47 -47 115z" />
<glyph unicode="&#xec;" horiz-adv-x="679" d="M-166 162q100 274 361 684q78 123 151 215l203 -150q-150 -205 -291 -493q-41 -86 -70 -160q209 63 502 217l43 -207q-199 -129 -479 -252q-94 -41 -184 -71zM291 1632l232 127q135 -246 252 -557l-201 -88q-119 276 -283 518z" />
<glyph unicode="&#xed;" horiz-adv-x="679" d="M-166 162q100 274 361 684q78 123 151 215l203 -150q-150 -205 -291 -493q-41 -86 -70 -160q209 63 502 217l43 -207q-199 -129 -479 -252q-94 -41 -184 -71zM538 1262q223 172 439 411l198 -192q-182 -170 -483 -377z" />
<glyph unicode="&#xee;" horiz-adv-x="679" d="M-166 162q100 274 361 684q78 123 151 215l203 -150q-150 -205 -291 -493q-41 -86 -70 -160q209 63 502 217l43 -207q-199 -129 -479 -252q-94 -41 -184 -71zM153 1407q229 125 473 221l244 -125q55 -205 70.5 -290t28.5 -152l-203 -51q-59 222 -125 372 q-238 -80 -389 -157z" />
<glyph unicode="&#xef;" horiz-adv-x="679" d="M-166 162q100 274 361 684q78 123 151 215l203 -150q-150 -205 -291 -493q-41 -86 -70 -160q209 63 502 217l43 -207q-199 -129 -479 -252q-94 -41 -184 -71zM217 1444q0 68 47.5 115t114.5 47q68 0 115 -47.5t47 -114.5q0 -68 -47 -116t-115 -48t-115 48t-47 116z M742 1245q0 68 48 116t116 48t114.5 -48t46.5 -116t-47 -115t-114 -47q-68 0 -117 47q-47 47 -47 115z" />
<glyph unicode="&#xf0;" horiz-adv-x="1189" d="M-104 188q16 193 108 381q33 68 76 123q86 111 189.5 174.5t240.5 104.5l186 -189q33 123 37 295q-90 -12 -186 -33l-31 224q102 20 207 32l-21 144l283 41q14 -84 25 -156q53 4 204 10l13 -223q-199 -8 -205 -8q0 -381 -158 -674q172 8 336 41l43 -207 q-238 -100 -452 -149l-84 98q-86 -88 -216.5 -164t-304.5 -108zM182 221q190 43 326 203q131 156 180 326q-223 -47 -356 -193q-123 -137 -150 -336z" />
<glyph unicode="&#xf1;" horiz-adv-x="1288" d="M-166 102q70 236 217 531q133 264 279 446l207 -149q-72 -96 -138 -217q205 162 424 278l248 -194q-68 -291 -237 -525q205 70 464 203l43 -207q-84 -55 -256 -141q-295 -145 -407 -182l-254 180q123 147 206 291.5t107 253.5q-262 -123 -499 -287q-94 -225 -160 -438z M483 1499q76 25 165 37t118 12q49 -14 95 -51t90 -77t85 -73.5t80 -41.5l164 12l24 -193q-160 -49 -286 -49q-49 14 -94.5 50t-89.5 76t-84.5 74t-79.5 42l-166 -12z" />
<glyph unicode="&#xf2;" horiz-adv-x="1200" d="M-70 188q0 197 78 390q98 242 324 391q156 104 338 129l325 -279q-35 -221 -118 -385q147 8 333 41l45 -207q-266 -111 -417 -149l-99 112q-197 -227 -518 -286zM205 223q233 53 389 289q66 100 94.5 192.5t30.5 147.5q-166 -23 -316 -176q-186 -191 -198 -453zM610 1632 l232 127q135 -246 252 -557l-201 -88q-119 276 -283 518z" />
<glyph unicode="&#xf3;" horiz-adv-x="1200" d="M-70 188q0 197 78 390q98 242 324 391q156 104 338 129l325 -279q-35 -221 -118 -385q147 8 333 41l45 -207q-266 -111 -417 -149l-99 112q-197 -227 -518 -286zM205 223q233 53 389 289q66 100 94.5 192.5t30.5 147.5q-166 -23 -316 -176q-186 -191 -198 -453zM860 1262 q223 172 439 411l198 -192q-182 -170 -483 -377z" />
<glyph unicode="&#xf4;" horiz-adv-x="1200" d="M-70 188q0 197 78 390q98 242 324 391q156 104 338 129l325 -279q-35 -221 -118 -385q147 8 333 41l45 -207q-266 -111 -417 -149l-99 112q-197 -227 -518 -286zM205 223q233 53 389 289q66 100 94.5 192.5t30.5 147.5q-166 -23 -316 -176q-186 -191 -198 -453zM485 1407 q229 125 473 221l244 -125q55 -205 70.5 -290t28.5 -152l-203 -51q-59 222 -125 372q-238 -80 -389 -157z" />
<glyph unicode="&#xf5;" horiz-adv-x="1200" d="M-70 188q0 197 78 390q98 242 324 391q156 104 338 129l325 -279q-35 -221 -118 -385q147 8 333 41l45 -207q-266 -111 -417 -149l-99 112q-197 -227 -518 -286zM205 223q233 53 389 289q66 100 94.5 192.5t30.5 147.5q-166 -23 -316 -176q-186 -191 -198 -453zM575 1499 q76 25 165 37t118 12q49 -14 95 -51t90 -77t85 -73.5t80 -41.5l164 12l24 -193q-160 -49 -286 -49q-49 14 -94.5 50t-89.5 76t-84.5 74t-79.5 42l-166 -12z" />
<glyph unicode="&#xf6;" horiz-adv-x="1200" d="M-70 188q0 197 78 390q98 242 324 391q156 104 338 129l325 -279q-35 -221 -118 -385q147 8 333 41l45 -207q-266 -111 -417 -149l-99 112q-197 -227 -518 -286zM205 223q233 53 389 289q66 100 94.5 192.5t30.5 147.5q-166 -23 -316 -176q-186 -191 -198 -453zM559 1444 q0 68 47.5 115t114.5 47q68 0 115 -47.5t47 -114.5q0 -68 -47 -116t-115 -48t-115 48t-47 116zM1084 1245q0 68 48 116t116 48t114.5 -48t46.5 -116t-47 -115t-114 -47q-68 0 -117 47q-47 47 -47 115z" />
<glyph unicode="&#xf7;" horiz-adv-x="1247" d="M131 653l94 234q393 -102 774 -271l-94 -227q-395 170 -774 264zM256 257q0 73 50 123t122 50t122 -50t50 -124q0 -72 -50 -122t-122 -50t-122 50t-50 123zM532.5 1031q-0.5 73 50 123t122.5 50t122 -50t50 -124q0 -72 -50.5 -122t-122 -50t-122.5 49q-49 51 -49.5 124z " />
<glyph unicode="&#xf8;" horiz-adv-x="1200" d="M-158 -45l156 176l-68 57q0 197 78 390q98 242 324 391q156 104 338 129l100 -86l141 176l136 -111q-35 -41 -146 -178l94 -80q-35 -221 -118 -385q147 8 333 41l45 -207q-266 -111 -417 -149l-99 112q-197 -227 -518 -286l-90 75l-158 -178zM205 223q233 53 389 289 q66 100 94.5 192.5t30.5 147.5q-166 -23 -316 -176q-186 -191 -198 -453z" />
<glyph unicode="&#xf9;" horiz-adv-x="1228" d="M-102 180q29 231 143.5 456.5t294.5 469.5l211 -162q-287 -387 -363 -704q2 0 38 11t93 44q145 82 269 235q143 291 274 476l219 -170q-193 -283 -313 -560l-8 -4q131 35 285.5 107t197.5 96l43 -207q-127 -92 -399 -227q-111 -55 -201 -88l-180 201q-129 -123 -332 -209 zM401 1632l232 127q135 -246 252 -557l-201 -88q-119 276 -283 518z" />
<glyph unicode="&#xfa;" horiz-adv-x="1228" d="M-102 180q29 231 143.5 456.5t294.5 469.5l211 -162q-287 -387 -363 -704q2 0 38 11t93 44q145 82 269 235q143 291 274 476l219 -170q-193 -283 -313 -560l-8 -4q131 35 285.5 107t197.5 96l43 -207q-127 -92 -399 -227q-111 -55 -201 -88l-180 201q-129 -123 -332 -209 zM633 1262q223 172 439 411l198 -192q-182 -170 -483 -377z" />
<glyph unicode="&#xfb;" horiz-adv-x="1228" d="M-102 180q29 231 143.5 456.5t294.5 469.5l211 -162q-287 -387 -363 -704q2 0 38 11t93 44q145 82 269 235q143 291 274 476l219 -170q-193 -283 -313 -560l-8 -4q131 35 285.5 107t197.5 96l43 -207q-127 -92 -399 -227q-111 -55 -201 -88l-180 201q-129 -123 -332 -209 zM426 1407q229 125 473 221l244 -125q55 -205 70.5 -290t28.5 -152l-203 -51q-59 222 -125 372q-238 -80 -389 -157z" />
<glyph unicode="&#xfc;" horiz-adv-x="1228" d="M-102 180q29 231 143.5 456.5t294.5 469.5l211 -162q-287 -387 -363 -704q2 0 38 11t93 44q145 82 269 235q143 291 274 476l219 -170q-193 -283 -313 -560l-8 -4q131 35 285.5 107t197.5 96l43 -207q-127 -92 -399 -227q-111 -55 -201 -88l-180 201q-129 -123 -332 -209 zM471 1444q0 68 47.5 115t114.5 47q68 0 115 -47.5t47 -114.5q0 -68 -47 -116t-115 -48t-115 48t-47 116zM996 1245q0 68 48 116t116 48t114.5 -48t46.5 -116t-47 -115t-114 -47q-68 0 -117 47q-47 47 -47 115z" />
<glyph unicode="&#xfd;" horiz-adv-x="1241" d="M-299 -147q137 121 305 204l-119 86q18 270 281 697q82 133 180 266l213 -162q-358 -504 -387 -741q109 16 174 51q131 70 209 203q176 352 315 549l218 -170q-202 -308 -304 -535q332 96 465 174l45 -207q-164 -123 -366 -223q-72 -37 -125 -55l-100 110 q-57 -260 -136 -415q-74 -143 -209 -287q-225 6 -493 72q-84 20 -154 45zM-92 -297q188 -43 311 -47q133 113 209 354q-334 -135 -520 -307zM635 1262q223 172 439 411l198 -192q-182 -170 -483 -377z" />
<glyph unicode="&#xfe;" horiz-adv-x="1251" d="M-397 -424q373 1049 927 1886l213 -157q-184 -270 -258.5 -399.5t-107.5 -186.5q172 152 391 272l248 -194q-16 -164 -53 -283t-121 -205q231 78 420 166l43 -207q-260 -145 -725 -260q-143 -37 -289 -63l-199 182q-88 -207 -150.5 -395.5t-103.5 -313.5zM111 170 q117 18 217 44t132 41t77 58t81 101q82 131 103 274q-227 -119 -535 -350z" />
<glyph unicode="&#xff;" horiz-adv-x="1241" d="M-299 -147q137 121 305 204l-119 86q18 270 281 697q82 133 180 266l213 -162q-358 -504 -387 -741q109 16 174 51q131 70 209 203q176 352 315 549l218 -170q-202 -308 -304 -535q332 96 465 174l45 -207q-164 -123 -366 -223q-72 -37 -125 -55l-100 110 q-57 -260 -136 -415q-74 -143 -209 -287q-225 6 -493 72q-84 20 -154 45zM-92 -297q188 -43 311 -47q133 113 209 354q-334 -135 -520 -307zM462 1444q0 68 47.5 115t114.5 47q68 0 115 -47.5t47 -114.5q0 -68 -47 -116t-115 -48t-115 48t-47 116zM987 1245q0 68 48 116 t116 48t114.5 -48t46.5 -116t-47 -115t-114 -47q-68 0 -117 47q-47 47 -47 115z" />
<glyph unicode="&#x152;" horiz-adv-x="1947" d="M-37 172q59 631 518 1016q160 135 375 235q137 -74 242 -147l53 115q410 -57 788 -217l-110 -261q-188 78 -494 154l-88 -260q186 -49 395 -86l-90 -252l-229 49q-131 31 -197 53q-53 -92 -147 -282q317 -82 631 -101l-92 -262q-313 16 -654 101l-86 77 q-207 -160 -512 -210zM279 197q78 12 155.5 39.5t161.5 99.5q184 158 379 551q55 -19 239 -72q-197 174 -376 285q-205 -109 -367 -365q-168 -262 -192 -538z" />
<glyph unicode="&#x153;" horiz-adv-x="1699" d="M-70 188q0 197 78 390q98 242 324 391q156 104 338 129l223 -193q143 125 317 182l346 -286q-51 -213 -194 -309.5t-342 -96.5q-115 0 -170 15q-33 -80 -41 -199q354 20 688 158q113 45 213 106l45 -207q-190 -121 -444 -213q-272 -98 -520 -110l-199 182 q-170 -129 -371 -182zM205 223q233 53 389 289q66 100 94.5 192.5t30.5 147.5q-166 -23 -316 -176q-186 -191 -198 -453zM936 594q119 0 215 65q113 78 113 218q-104 -49 -192.5 -124t-135.5 -159z" />
<glyph unicode="&#x178;" horiz-adv-x="1159" d="M27 135q86 215 123.5 283.5t78.5 134.5q-47 410 76 944l275 -252q-70 -272 -78 -522q324 283 569 635l229 -219q-381 -483 -798 -738q-113 -174 -221 -485zM508 1731q0 68 48 116t116 48t114.5 -48.5t46.5 -115.5q0 -68 -47 -115t-114 -47q-68 0 -117 47q-47 47 -47 115z M1034 1534q0 68 47 115t115 47t115 -47t47 -115t-47.5 -115t-114.5 -47q-68 0 -115 47t-47 115z" />
<glyph unicode="&#x2c6;" horiz-adv-x="727" d="M145 1407q229 125 473 221l244 -125q55 -205 70.5 -290t28.5 -152l-203 -51q-59 222 -125 372q-238 -80 -389 -157z" />
<glyph unicode="&#x2dc;" horiz-adv-x="727" d="M180 1499q76 25 165 37t118 12q49 -14 95 -51t90 -77t85 -73.5t80 -41.5l164 12l24 -193q-160 -49 -286 -49q-49 14 -94.5 50t-89.5 76t-84.5 74t-79.5 42l-166 -12z" />
<glyph unicode="&#x2000;" horiz-adv-x="979" />
<glyph unicode="&#x2001;" horiz-adv-x="1958" />
<glyph unicode="&#x2002;" horiz-adv-x="979" />
<glyph unicode="&#x2003;" horiz-adv-x="1958" />
<glyph unicode="&#x2004;" horiz-adv-x="652" />
<glyph unicode="&#x2005;" horiz-adv-x="489" />
<glyph unicode="&#x2006;" horiz-adv-x="326" />
<glyph unicode="&#x2007;" horiz-adv-x="326" />
<glyph unicode="&#x2008;" horiz-adv-x="244" />
<glyph unicode="&#x2009;" horiz-adv-x="391" />
<glyph unicode="&#x200a;" horiz-adv-x="108" />
<glyph unicode="&#x2010;" horiz-adv-x="1210" d="M76 635l94 233q393 -102 774 -270l-94 -227q-395 170 -774 264z" />
<glyph unicode="&#x2011;" horiz-adv-x="1210" d="M76 635l94 233q393 -102 774 -270l-94 -227q-395 170 -774 264z" />
<glyph unicode="&#x2012;" horiz-adv-x="1210" d="M76 635l94 233q393 -102 774 -270l-94 -227q-395 170 -774 264z" />
<glyph unicode="&#x2013;" horiz-adv-x="1411" d="M82 627l82 235q442 -92 979 -264l-84 -233q-539 172 -977 262z" />
<glyph unicode="&#x2014;" horiz-adv-x="1878" d="M96 612l74 240q651 -119 1411 -365l-76 -237q-698 244 -1409 362z" />
<glyph unicode="&#x2018;" horiz-adv-x="581" d="M166 1004q164 250 360 491l197 -123q-166 -250 -301 -530z" />
<glyph unicode="&#x2019;" horiz-adv-x="591" d="M145 969q166 252 301 530l256 -162q-164 -250 -360 -491z" />
<glyph unicode="&#x201a;" horiz-adv-x="722" d="M-172 -322q166 252 301 531l256 -162q-164 -250 -360 -491z" />
<glyph unicode="&#x201c;" horiz-adv-x="1079" d="M166 1004q164 250 360 491l197 -123q-166 -250 -301 -530zM664 1004q164 250 360 491l197 -123q-166 -250 -301 -530z" />
<glyph unicode="&#x201d;" horiz-adv-x="1089" d="M145 969q166 252 301 530l256 -162q-164 -250 -360 -491zM643 969q166 252 301 530l256 -162q-164 -250 -360 -491z" />
<glyph unicode="&#x201e;" horiz-adv-x="1220" d="M-172 -322q166 252 301 531l256 -162q-164 -250 -360 -491zM326 -322q166 252 301 531l256 -162q-164 -250 -360 -491z" />
<glyph unicode="&#x2022;" horiz-adv-x="778" d="M90 641q0 102 69.5 172t170.5 70q104 0 173.5 -70t69.5 -172t-69.5 -172t-171.5 -70t-172 70t-70 172z" />
<glyph unicode="&#x2026;" horiz-adv-x="1855" d="M0 19q0 81 55.5 136.5t134.5 55.5q80 0 135.5 -55.5t55.5 -135.5q0 -123 -117 -176q-115 -49 -209 41q-55 53 -55 134zM553 19q0 81 55.5 136.5t134.5 55.5q80 0 135.5 -55.5t55.5 -135.5q0 -123 -117 -176q-115 -49 -209 41q-55 53 -55 134zM1106 19q0 81 55.5 136.5 t134.5 55.5q80 0 135.5 -55.5t55.5 -135.5q0 -123 -117 -176q-115 -49 -209 41q-55 53 -55 134z" />
<glyph unicode="&#x202f;" horiz-adv-x="391" />
<glyph unicode="&#x2039;" horiz-adv-x="935" d="M131 647l117 205q190 113 450 199l103 -179q-244 -119 -387 -210q90 -172 200 -340l-159 -121q-143 162 -324 446z" />
<glyph unicode="&#x203a;" horiz-adv-x="1009" d="M129 360q227 115 385 224q-55 106 -197 327l158 121q186 -211 326 -432l-117 -205q-219 -127 -453 -213z" />
<glyph unicode="&#x205f;" horiz-adv-x="489" />
<glyph unicode="&#x20ac;" horiz-adv-x="1349" d="M63 186q51 268 152 480q-102 55 -149 79l77 129q55 -23 146 -71l51 78l-141 73l77 129q53 -25 162 -79q195 223 492 362l385 -258q-39 -127 -87 -226.5t-73 -136.5l-240 117q68 119 105 262q-178 -92 -338 -266q33 -20 199 -137l-88 -127q-117 82 -211 141l-52 -76 q135 -88 218 -149l-89 -127l-92 63q-51 37 -110 74q-72 -152 -90 -305q233 29 524 154l82 -224q-297 -158 -643 -192z" />
<glyph unicode="&#x2122;" horiz-adv-x="1982" d="M213 856q66 164 138.5 280.5t142.5 213.5q-90 23 -187 41l99 178q250 -35 565 -139l-88 -201q-211 74 -330 104l115 -96q-131 -176 -222 -377q-31 -70 -65 -155zM801 854q190 389 452 698l209 -184q-57 -182 -88 -346q180 213 355 467l202 -172q-94 -328 -145 -456 t-98 -236l-166 135q98 211 151 368q-168 -219 -362 -454l-150 127q41 246 86 430q-141 -213 -286 -524z" />
<glyph unicode="&#x25fc;" horiz-adv-x="1095" d="M0 0v1096h1096v-1096h-1096z" />
</font>
</defs>
</svg>
